<svg xmlns="http://www.w3.org/2000/svg" xmlns:xlink="http://www.w3.org/1999/xlink" data-v-b90af754="" version="1.0" width="100%" height="100%" viewBox="0 0 340.000000 250.000000" preserveAspectRatio="xMidYMid meet" color-interpolation-filters="sRGB" class="el-tooltip" style="margin: auto;"><rect data-v-b90af754="" x="0" y="0" width="100%" height="100%" fill="#ffffff" fill-opacity="1"/>  <g data-v-b90af754="" fill="#fff" class="linesvg" transform="translate(56.00999450683594,105.59000015258789)"> <g fill="#333"><g class="tp-name"><g><path transform="translate(0,28.275377590446)" d="M17.73 0L4.44 0L4.44 0Q3.51 0 2.71-0.34L2.71-0.34L2.71-0.34Q1.90-0.69 1.29-1.29L1.29-1.29L1.29-1.29Q0.69-1.90 0.34-2.71L0.34-2.71L0.34-2.71Q0-3.51 0-4.44L0-4.44L0-4.44Q0-5.98 0.93-7.19L0.93-7.19L0.93-7.19Q1.86-8.40 3.31-8.77L3.31-8.77L3.31-8.77Q1.78-9.69 0.89-11.03L0.89-11.03L0.89-11.03Q0-12.36 0-13.90L0-13.90L0-13.90Q0-15.27 0.73-16.50L0.73-16.50L0.73-16.50Q1.45-17.73 2.73-18.64L2.73-18.64L2.73-18.64Q4.00-19.55 5.68-20.08L5.68-20.08L5.68-20.08Q7.35-20.60 9.29-20.60L9.29-20.60L9.29-20.60Q11.19-20.60 12.97-20.04L12.97-20.04L12.97-22.01L12.97-22.01Q12.97-22.94 13.61-23.59L13.61-23.59L13.61-23.59Q14.26-24.24 15.19-24.24L15.19-24.24L15.19-23.43L15.19-23.43Q14.62-23.43 14.22-23.04L14.22-23.04L14.22-23.04Q13.81-22.66 13.77-22.14L13.77-22.14L13.77-19.75L13.77-19.75Q15.96-18.90 17.27-17.37L17.27-17.37L17.27-17.37Q18.58-15.83 18.58-13.90L18.58-13.90L18.58-13.90Q18.58-12.48 17.85-11.27L17.85-11.27L17.85-11.27Q17.13-10.06 15.85-9.17L15.85-9.17L15.85-9.17Q14.58-8.28 12.91-7.76L12.91-7.76L12.91-7.76Q11.23-7.23 9.29-7.23L9.29-7.23L9.29-7.23Q8.00-7.23 6.87-7.45L6.87-7.45L6.87-7.45Q5.74-7.67 4.69-8.08L4.69-8.08L4.69-8.08Q4.60-8.12 4.44-8.12L4.44-8.12L4.44-8.12Q3.03-8.12 2.00-7.17L2.00-7.17L2.00-7.17Q0.97-6.22 0.81-4.85L0.81-4.85L13.98-4.89L14.10-4.89L14.10-4.89Q15.03-4.89 15.83-4.52L15.83-4.52L15.83-4.52Q16.64-4.16 17.25-3.55L17.25-3.55L17.25-3.55Q17.85-2.95 18.22-2.14L18.22-2.14L18.22-2.14Q18.58-1.33 18.58-0.40L18.58-0.40L18.58-0.40Q18.58 0.53 18.22 1.33L18.22 1.33L18.22 1.33Q17.85 2.14 17.25 2.75L17.25 2.75L17.25 2.75Q16.64 3.35 15.83 3.70L15.83 3.70L15.83 3.70Q15.03 4.04 14.10 4.04L14.10 4.04L8.08 4.04L8.08 3.23L14.10 3.23L14.10 3.23Q15.51 3.23 16.54 2.30L16.54 2.30L16.54 2.30Q17.57 1.37 17.73 0L17.73 0M9.29-19.79L9.29-19.79L9.29-19.79Q7.35-19.79 5.66-19.23L5.66-19.23L5.66-8.64L5.66-8.64Q7.35-8.08 9.29-8.08L9.29-8.08L9.29-8.08Q11.19-8.08 12.97-8.64L12.97-8.64L12.97-19.23L12.97-19.23Q11.19-19.79 9.29-19.79ZM31.10-0.40L31.10-0.40L31.10-0.40Q32.56-0.40 33.89-0.81L33.89-0.81L33.89-0.81Q35.22-1.21 36.37-1.96L36.37-1.96L36.37-1.96Q37.53-2.71 38.41-3.74L38.41-3.74L38.41-3.74Q39.30-4.77 39.91-6.02L39.91-6.02L40.76-6.02L40.76-6.02Q40.15-4.60 39.18-3.41L39.18-3.41L39.18-3.41Q38.21-2.22 36.96-1.37L36.96-1.37L36.96-1.37Q35.71-0.53 34.21-0.06L34.21-0.06L34.21-0.06Q32.72 0.40 31.10 0.40L31.10 0.40L31.10 0.40Q28.92 0.40 27.00-0.42L27.00-0.42L27.00-0.42Q25.08-1.25 23.67-2.67L23.67-2.67L23.67-2.67Q22.26-4.08 21.43-6.00L21.43-6.00L21.43-6.00Q20.60-7.92 20.60-10.10L20.60-10.10L20.60-10.10Q20.60-12.28 21.43-14.20L21.43-14.20L21.43-14.20Q22.26-16.12 23.67-17.53L23.67-17.53L23.67-17.53Q25.08-18.94 27.00-19.77L27.00-19.77L27.00-19.77Q28.92-20.60 31.10-20.60L31.10-20.60L31.10-20.60Q33.28-20.60 35.20-19.77L35.20-19.77L35.20-19.77Q37.12-18.94 38.54-17.49L38.54-17.49L38.54-17.49Q39.95-16.04 40.78-14.06L40.78-14.06L40.78-14.06Q41.61-12.08 41.61-9.78L41.61-9.78L26.30-9.78L26.30-1.70L26.30-1.70Q28.44-0.40 31.10-0.40M31.10-19.79L31.10-19.79L31.10-19.79Q29.77-19.79 28.56-19.45L28.56-19.45L28.56-19.45Q27.35-19.11 26.30-18.50L26.30-18.50L26.30-10.58L35.99-10.58L35.99-18.46L35.99-18.46Q34.90-19.11 33.67-19.45L33.67-19.45L33.67-19.45Q32.44-19.79 31.10-19.79ZM43.62-10.10L43.62-10.10L43.62-10.10Q43.62-12.28 44.45-14.20L44.45-14.20L44.45-14.20Q45.28-16.12 46.69-17.53L46.69-17.53L46.69-17.53Q48.11-18.94 50.03-19.77L50.03-19.77L50.03-19.77Q51.95-20.60 54.13-20.60L54.13-20.60L54.13-20.60Q56.31-20.60 58.23-19.77L58.23-19.77L58.23-19.77Q60.15-18.94 61.56-17.53L61.56-17.53L61.56-17.53Q62.97-16.12 63.80-14.20L63.80-14.20L63.80-14.20Q64.63-12.28 64.63-10.10L64.63-10.10L64.63-10.10Q64.63-7.92 63.80-6.00L63.80-6.00L63.80-6.00Q62.97-4.08 61.56-2.67L61.56-2.67L61.56-2.67Q60.15-1.25 58.23-0.42L58.23-0.42L58.23-0.42Q56.31 0.40 54.13 0.40L54.13 0.40L54.13 0.40Q51.95 0.40 50.03-0.42L50.03-0.42L50.03-0.42Q48.11-1.25 46.69-2.67L46.69-2.67L46.69-2.67Q45.28-4.08 44.45-6.00L44.45-6.00L44.45-6.00Q43.62-7.92 43.62-10.10M54.13-19.79L54.13-19.79L54.13-19.79Q52.79-19.79 51.58-19.45L51.58-19.45L51.58-19.45Q50.37-19.11 49.32-18.50L49.32-18.50L49.32-1.70L49.32-1.70Q51.46-0.40 54.13-0.40L54.13-0.40L54.13-0.40Q55.46-0.40 56.69-0.75L56.69-0.75L56.69-0.75Q57.92-1.09 59.01-1.74L59.01-1.74L59.01-18.46L59.01-18.46Q57.92-19.11 56.69-19.45L56.69-19.45L56.69-19.45Q55.46-19.79 54.13-19.79ZM79.57-23.02L78.77-23.02L78.77-23.02Q78.77-23.95 78.42-24.76L78.42-24.76L78.42-24.76Q78.08-25.57 77.47-26.17L77.47-26.17L77.47-26.17Q76.87-26.78 76.06-27.12L76.06-27.12L76.06-27.12Q75.25-27.47 74.32-27.47L74.32-27.47L74.32-27.47Q74.04-27.47 73.92-27.43L73.92-27.43L73.92-20.20L76.34-20.20L76.34-19.39L73.92-19.39L73.92-0.81L76.34-0.81L76.34 0L66.65 0L66.65-0.81L69.07-0.81L69.07-19.39L66.65-19.39L66.65-20.20L69.07-20.20L69.07-23.02L69.07-23.02Q69.07-24.11 69.48-25.06L69.48-25.06L69.48-25.06Q69.88-26.01 70.61-26.74L70.61-26.74L70.61-26.74Q71.33-27.47 72.28-27.87L72.28-27.87L72.28-27.87Q73.23-28.28 74.32-28.28L74.32-28.28L74.32-28.28Q75.41-28.28 76.36-27.87L76.36-27.87L76.36-27.87Q77.31-27.47 78.04-26.74L78.04-26.74L78.04-26.74Q78.77-26.01 79.17-25.06L79.17-25.06L79.17-25.06Q79.57-24.11 79.57-23.02L79.57-23.02ZM94.52-23.02L93.71-23.02L93.71-23.02Q93.71-23.95 93.37-24.76L93.37-24.76L93.37-24.76Q93.03-25.57 92.42-26.17L92.42-26.17L92.42-26.17Q91.81-26.78 91.01-27.12L91.01-27.12L91.01-27.12Q90.20-27.47 89.27-27.47L89.27-27.47L89.27-27.47Q88.99-27.47 88.87-27.43L88.87-27.43L88.87-20.20L91.29-20.20L91.29-19.39L88.87-19.39L88.87-0.81L91.29-0.81L91.29 0L81.59 0L81.59-0.81L84.02-0.81L84.02-19.39L81.59-19.39L81.59-20.20L84.02-20.20L84.02-23.02L84.02-23.02Q84.02-24.11 84.42-25.06L84.42-25.06L84.42-25.06Q84.83-26.01 85.55-26.74L85.55-26.74L85.55-26.74Q86.28-27.47 87.23-27.87L87.23-27.87L87.23-27.87Q88.18-28.28 89.27-28.28L89.27-28.28L89.27-28.28Q90.36-28.28 91.31-27.87L91.31-27.87L91.31-27.87Q92.26-27.47 92.99-26.74L92.99-26.74L92.99-26.74Q93.71-26.01 94.12-25.06L94.12-25.06L94.12-25.06Q94.52-24.11 94.52-23.02L94.52-23.02ZM96.54-10.10L96.54-10.10L96.54-10.10Q96.54-12.28 97.37-14.20L97.37-14.20L97.37-14.20Q98.20-16.12 99.61-17.53L99.61-17.53L99.61-17.53Q101.02-18.94 102.94-19.77L102.94-19.77L102.94-19.77Q104.86-20.60 107.04-20.60L107.04-20.60L107.04-20.60Q109.22-20.60 111.14-19.77L111.14-19.77L111.14-19.77Q113.06-18.94 114.47-17.53L114.47-17.53L114.47-17.53Q115.89-16.12 116.72-14.20L116.72-14.20L116.72-14.20Q117.54-12.28 117.54-10.10L117.54-10.10L117.54-10.10Q117.54-7.92 116.72-6.00L116.72-6.00L116.72-6.00Q115.89-4.08 114.47-2.67L114.47-2.67L114.47-2.67Q113.06-1.25 111.14-0.42L111.14-0.42L111.14-0.42Q109.22 0.40 107.04 0.40L107.04 0.40L107.04 0.40Q104.86 0.40 102.94-0.42L102.94-0.42L102.94-0.42Q101.02-1.25 99.61-2.67L99.61-2.67L99.61-2.67Q98.20-4.08 97.37-6.00L97.37-6.00L97.37-6.00Q96.54-7.92 96.54-10.10M107.04-19.79L107.04-19.79L107.04-19.79Q105.71-19.79 104.50-19.45L104.50-19.45L104.50-19.45Q103.29-19.11 102.24-18.50L102.24-18.50L102.24-1.70L102.24-1.70Q104.38-0.40 107.04-0.40L107.04-0.40L107.04-0.40Q108.38-0.40 109.61-0.75L109.61-0.75L109.61-0.75Q110.84-1.09 111.93-1.74L111.93-1.74L111.93-18.46L111.93-18.46Q110.84-19.11 109.61-19.45L109.61-19.45L109.61-19.45Q108.38-19.79 107.04-19.79ZM119.56 0L119.56-0.81L121.99-0.81L121.99-27.47L119.56-27.47L119.56-28.28L126.84-28.28L126.84-11.71L135.72-19.39L134.27-19.39L134.27-20.20L139.11-20.20L139.11-19.39L136.97-19.39L129.91-13.29L139.20-0.81L141.13-0.81L141.13 0L131.28 0L131.28-0.81L133.10-0.81L126.84-9.25L126.84-0.81L129.26-0.81L129.26 0L119.56 0ZM165.77-20.20L165.77-19.39L163.35-19.39L163.35-0.81L165.77-0.81L165.77 0L158.50 0L158.50-1.05L158.50-1.05Q157.53-0.69 156.34-0.34L156.34-0.34L156.34-0.34Q155.15 0 154.06 0L154.06 0L154.06 0Q152.24 0 150.69-0.48L150.69-0.48L150.69-0.48Q149.13-0.97 148.00-1.78L148.00-1.78L148.00-1.78Q146.87-2.59 146.22-3.70L146.22-3.70L146.22-3.70Q145.58-4.81 145.58-6.06L145.58-6.06L145.58-19.39L143.15-19.39L143.15-20.20L152.85-20.20L152.85-19.39L150.43-19.39L150.43-1.37L150.43-1.37Q152.04-0.81 154.06-0.81L154.06-0.81L154.06-0.81Q155.15-0.81 156.36-1.17L156.36-1.17L156.36-1.17Q157.57-1.53 158.50-1.90L158.50-1.90L158.50-19.39L156.08-19.39L156.08-20.20L165.77-20.20ZM167.79 0L167.79-0.81L170.22-0.81L170.22-19.39L167.79-19.39L167.79-20.20L175.06-20.20L175.06-19.51L175.06-19.51Q176.92-20.20 179.10-20.20L179.10-20.20L179.10-20.20Q181.00-20.20 182.66-19.69L182.66-19.69L182.66-19.69Q184.32-19.19 185.53-18.30L185.53-18.30L185.53-18.30Q186.90-19.31 188.58-19.75L188.58-19.75L188.58-19.75Q190.25-20.20 192.03-20.20L192.03-20.20L192.03-20.20Q193.85-20.20 195.46-19.71L195.46-19.71L195.46-19.71Q197.08-19.23 198.29-18.42L198.29-18.42L198.29-18.42Q199.50-17.61 200.21-16.50L200.21-16.50L200.21-16.50Q200.92-15.39 200.92-14.14L200.92-14.14L200.92-0.81L203.34-0.81L203.34 0L193.65 0L193.65-0.81L196.07-0.81L196.07-18.66L196.07-18.66Q195.14-18.98 194.13-19.19L194.13-19.19L194.13-19.19Q193.12-19.39 192.03-19.39L192.03-19.39L192.03-19.39Q190.54-19.39 189.04-19.03L189.04-19.03L189.04-19.03Q187.55-18.66 186.21-17.77L186.21-17.77L186.21-17.77Q187.02-17.01 187.51-16.10L187.51-16.10L187.51-16.10Q187.99-15.19 187.99-14.14L187.99-14.14L187.99-0.81L190.41-0.81L190.41 0L180.72 0L180.72-0.81L183.14-0.81L183.14-18.66L183.14-18.66Q182.21-18.98 181.20-19.19L181.20-19.19L181.20-19.19Q180.19-19.39 179.10-19.39L179.10-19.39L179.10-19.39Q177.97-19.39 176.96-19.19L176.96-19.19L176.96-19.19Q175.95-18.98 175.06-18.66L175.06-18.66L175.06-0.81L177.49-0.81L177.49 0L167.79 0ZM227.98-20.20L227.98-19.39L225.56-19.39L225.56-0.81L227.98-0.81L227.98 0L220.71 0L220.71-1.05L220.71-1.05Q219.74-0.69 218.55-0.34L218.55-0.34L218.55-0.34Q217.36 0 216.27 0L216.27 0L216.27 0Q214.45 0 212.89-0.48L212.89-0.48L212.89-0.48Q211.34-0.97 210.21-1.78L210.21-1.78L210.21-1.78Q209.08-2.59 208.43-3.70L208.43-3.70L208.43-3.70Q207.78-4.81 207.78-6.06L207.78-6.06L207.78-19.39L205.36-19.39L205.36-20.20L215.05-20.20L215.05-19.39L212.63-19.39L212.63-1.37L212.63-1.37Q214.25-0.81 216.27-0.81L216.27-0.81L216.27-0.81Q217.36-0.81 218.57-1.17L218.57-1.17L218.57-1.17Q219.78-1.53 220.71-1.90L220.71-1.90L220.71-19.39L218.29-19.39L218.29-20.20L227.98-20.20Z"/></g> <!----></g> <!----></g></g></svg>