<svg xmlns="http://www.w3.org/2000/svg" width="225.594" height="25.75" viewBox="0 0 225.594 25.75">
  <g id="Group_36" data-name="Group 36" transform="translate(-0.001 -55.179)">
    <g id="Group_41" data-name="Group 41" transform="translate(0 55.179)">
      <g id="Group_40" data-name="Group 40">
        <g id="Group_39" data-name="Group 39">
          <path id="Path_2" data-name="Path 2" d="M20.82-1.54h0V-12.51H15.76V-5a9.623,9.623,0,0,1-1.4.14c-9.64,0-10.1-14.92,0-15.26a11.834,11.834,0,0,1,5.24.9l.59-5.06a16.63,16.63,0,0,0-5.83-.91C-2.97-24.56-2.13.14,14.36.14A12.9,12.9,0,0,0,20.82-1.54ZM39.24,0h0V-5H31.3V-9.99h6.57v-5H31.3v-4.99h7.52v-5H26.31V0Zm16.7.35h0c17.19,0,17.19-25.75,0-25.75S38.75.35,55.94.35Zm0-5.17h0c-10,0-10-15.44,0-15.44S65.93-4.82,55.94-4.82ZM85.98-19.98h0v-5H73.51V0h5V-9.99h6.36v-5H78.51v-4.99Zm16.6,0h0v-5H90.11V0H95.1V-9.99h6.36v-5H95.1v-4.99ZM118.72.35h0c17.19,0,17.19-25.75,0-25.75S101.53.35,118.72.35Zm0-5.17h0c-9.99,0-9.99-15.44,0-15.44S128.71-4.82,118.72-4.82ZM136.3,0h4.99V-9.78L147.93,0h6.18l-8.8-12.65,8.1-12.33h-5.83l-6.29,9.96v-9.96H136.3V0Zm39.02-8.7V-24.98h-4.96V-8.73c0,5.24-8.11,5.24-8.11,0V-24.98h-4.99V-8.7c0,11.88,18.06,11.88,18.06,0Zm16.98-5.69-9.85-10.98h-1.61V0h5.07V-13.94l6.39,6.71,6.4-6.71L198.66,0h5.07V-25.37h-1.58L192.3-14.39ZM227.27-8.7V-24.98h-4.96V-8.73c0,5.24-8.1,5.24-8.1,0V-24.98h-5V-8.7c0,11.88,18.06,11.88,18.06,0Z" transform="translate(-1.675 25.4)" fill="#333"/>
        </g>
      </g>
    </g>
  </g>
</svg>
