<?xml version="1.0" encoding="UTF-8" standalone="no"?>
<!-- Created with Inkscape (http://www.inkscape.org/) -->

<svg
   xmlns:dc="http://purl.org/dc/elements/1.1/"
   xmlns:cc="http://creativecommons.org/ns#"
   xmlns:rdf="http://www.w3.org/1999/02/22-rdf-syntax-ns#"
   xmlns:svg="http://www.w3.org/2000/svg"
   xmlns="http://www.w3.org/2000/svg"
   xmlns:sodipodi="http://sodipodi.sourceforge.net/DTD/sodipodi-0.dtd"
   xmlns:inkscape="http://www.inkscape.org/namespaces/inkscape"
   width="395.77567mm"
   height="50.3936mm"
   viewBox="0 0 395.77567 50.3936"
   version="1.1"
   id="svg71"
   sodipodi:docname="Insights.svg"
   inkscape:version="0.92.4 (5da689c313, 2019-01-14)">
  <defs
     id="defs65" />
  <sodipodi:namedview
     id="base"
     pagecolor="#ffffff"
     bordercolor="#666666"
     borderopacity="1.0"
     inkscape:pageopacity="0.0"
     inkscape:pageshadow="2"
     inkscape:zoom="0.35"
     inkscape:cx="330.208"
     inkscape:cy="473.33033"
     inkscape:document-units="mm"
     inkscape:current-layer="g132"
     showgrid="false"
     inkscape:window-width="1920"
     inkscape:window-height="1001"
     inkscape:window-x="-9"
     inkscape:window-y="-9"
     inkscape:window-maximized="1" />
  <metadata
     id="metadata68">
    <rdf:RDF>
      <cc:Work
         rdf:about="">
        <dc:format>image/svg+xml</dc:format>
        <dc:type
           rdf:resource="http://purl.org/dc/dcmitype/StillImage" />
        <dc:title></dc:title>
      </cc:Work>
    </rdf:RDF>
  </metadata>
  <g
     inkscape:label="Layer 1"
     inkscape:groupmode="layer"
     id="layer1"
     transform="translate(-18.465799,-223.67505)">
    <g
       aria-label="Geoffokumu Insights"
       style="font-style:normal;font-variant:normal;font-weight:normal;font-stretch:normal;font-size:50.79999924px;line-height:1.25;font-family:Playball;-inkscape-font-specification:Playball;letter-spacing:0px;word-spacing:0px;fill:#000000;fill-opacity:1;stroke:none;stroke-width:0.26458332"
       id="text75">
      <g
         id="g132">
        <path
           id="path77"
           style="font-style:normal;font-variant:normal;font-weight:normal;font-stretch:normal;font-size:50.79999924px;font-family:Playball;-inkscape-font-specification:Playball;stroke-width:0.26458332;fill:#d4aa00"
           d="m 56.108598,245.56985 q -0.3556,1.8288 -1.2192,2.6924 -0.8636,0.8636 -2.3368,1.1176 -5.181599,14.0208 -20.269199,14.0208 -6.6548,0 -10.2616,-3.0988 -3.556,-3.1496 -3.556,-8.7884 0,-4.2672 1.9812,-8.8392 1.9812,-4.6228 5.2324,-8.4328 3.302,-3.81 8.0772,-6.2484 4.7752,-2.4892 9.3472,-2.4892 4.572,0 7.0612,1.6256 2.489199,1.5748 2.489199,4.2164 0,2.5908 -2.489199,4.7244 -2.4892,2.0828 -5.5372,2.0828 -1.1176,0 -1.8288,-0.4572 -0.7112,-0.508 -0.7112,-1.27 0,-0.762 0.6096,-1.6256 0.5588,0.2032 1.27,0.2032 1.9812,0 3.6576,-1.3716 1.6764,-1.3716 1.6764,-3.302 0,-2.9464 -3.8608,-2.9464 -3.81,0 -7.62,2.3368 -3.81,2.286 -6.6548,5.8928 -2.8448,3.556 -4.6736,8.128 -1.778,4.572 -1.778,8.9408 0,4.3688 2.2352,6.4516 2.2352,2.0828 5.9436,2.0828 5.334,0 10.0584,-3.2512 4.7244,-3.302 5.5372,-8.4328 -9.0932,0 -10.922,0.254 0.254,-0.4572 0.6096,-1.1684 0.4064,-0.7112 1.3716,-1.8796 1.016,-1.1684 1.6764,-1.1684 z"
           inkscape:connector-curvature="0" />
        <path
           id="path79"
           style="font-style:normal;font-variant:normal;font-weight:normal;font-stretch:normal;font-size:50.79999924px;font-family:Playball;-inkscape-font-specification:Playball;stroke-width:0.26458332;fill:#d4aa00"
           d="m 75.627703,248.26225 q 0.3048,0 0.3048,1.016 0,0.9652 -0.8128,2.3368 -0.8128,1.3716 -1.6256,2.5908 -0.762,1.2192 -2.082799,2.8448 -1.3208,1.6256 -2.5908,2.5908 -3.2004,2.3368 -6.4516,2.3368 -3.2004,0 -5.1816,-1.6256 -1.9812,-1.6764 -1.9812,-5.08 0,-5.1816 3.81,-9.6012 3.81,-4.4196 8.89,-4.4196 2.286,0 3.657599,1.2192 1.3716,1.1684 1.3716,2.8448 0,2.8448 -2.692399,4.572 -2.6924,1.7272 -6.35,1.7272 -2.1336,0 -3.1496,-0.5588 -0.9652,2.5908 -0.9652,4.572 0,4.2672 3.6068,4.2672 2.1336,0 4.3688,-1.6256 2.286,-1.6764 3.860799,-3.7084 1.6256,-2.0828 3.6576,-5.9436 0.2032,-0.3556 0.3556,-0.3556 z m -5.384799,-4.0132 q 0,-1.4732 -1.4224,-1.4732 -1.9812,0 -4.4196,2.4384 -2.4384,2.4384 -2.4384,3.9624 0,1.016 1.9304,1.016 1.9304,0 4.0132,-1.8796 2.1336,-1.8796 2.3368,-4.064 z"
           inkscape:connector-curvature="0" />
        <path
           id="path81"
           style="font-style:normal;font-variant:normal;font-weight:normal;font-stretch:normal;font-size:50.79999924px;font-family:Playball;-inkscape-font-specification:Playball;stroke-width:0.26458332;fill:#d4aa00"
           d="m 97.899532,248.97345 q 0.1524,-0.3048 0.3048,-0.3048 0.3048,0 0.3048,0.762 0,2.4384 -1.9812,4.064 -1.9304,1.5748 -3.6576,1.5748 -1.6764,0 -2.8956,-0.9652 -1.8288,3.6068 -4.3688,5.6896 -2.4892,2.0828 -6.4516,2.0828 -2.54,0 -4.1656,-1.524 -1.5748,-1.5748 -1.5748,-4.7244 0,-3.2004 1.4224,-6.5532 1.4732,-3.4036 4.3688,-5.842 2.9464,-2.4384 6.5532,-2.4384 6.0452,0 6.0452,6.4008 0,2.4384 -1.0668,5.1308 0.762,1.0668 2.1844,1.0668 2.6416,0 4.9784,-4.4196 z m -8.4836,-3.1496 q -0.2032,-2.6924 -2.4384,-2.6924 -3.5052,0 -6.858,6.8072 -1.8288,3.7592 -1.8288,6.8072 0,3.048 2.6416,3.2004 2.1844,0 4.0132,-2.286 1.8796,-2.3368 3.1496,-5.1308 -1.7272,-1.4732 -1.7272,-3.7084 0,-1.3716 0.7112,-2.1844 0.762,-0.8128 2.032,-0.8128 z"
           inkscape:connector-curvature="0" />
        <path
           id="path83"
           style="font-style:normal;font-variant:normal;font-weight:normal;font-stretch:normal;font-size:50.79999924px;font-family:Playball;-inkscape-font-specification:Playball;stroke-width:0.26458332;fill:#d4aa00"
           d="m 101.21264,245.56985 q -3.809996,7.2644 -4.216396,7.2644 -0.254,0 -0.254,-0.8128 0,-0.8636 0.3048,-1.4732 2.4892,-4.2672 3.759196,-8.128 0.2032,-0.6604 0.4572,-0.8636 0.254,-0.254 0.8636,-0.254 h 0.4064 l 4.4704,0.3556 q 0.3048,-0.762 1.016,-2.794 0.762,-2.032 1.1684,-3.0988 0.4064,-1.0668 1.2192,-2.8956 0.8128,-1.8288 1.4732,-2.8956 0.6604,-1.0668 1.7272,-2.3876 1.0668,-1.3716 2.1336,-2.0828 2.5908,-1.7272 5.588,-1.7272 5.2832,0 5.2832,3.9116 0,1.4732 -0.8636,2.6416 -0.8128,1.1684 -2.1844,1.1684 -0.6604,0 -1.1684,-0.3556 -0.4572,-0.3556 -0.4572,-0.8128 0,-0.508 0.762,-1.5748 0.762,-1.1176 0.762,-1.8796 0,-0.8128 -0.6604,-1.3208 -0.6096,-0.508 -1.4732,-0.508 -1.524,0 -3.048,1.6256 -1.524,1.6256 -2.794,4.2672 -2.2352,4.6228 -4.0132,9.8552 -0.0508,0.254 -0.1016,0.3556 -0.1524,0.4064 -0.254,0.7112 8.0264,0 9.144,-0.7112 -0.6604,1.6256 -2.8448,2.1336 -2.1844,0.508 -7.0104,0.6096 l -1.4732,4.2672 q -3.1496,9.0424 -4.8768,12.446 -1.7272,3.3528 -3.302,5.7912 -1.523996,2.4384 -3.047996,4.0132 -3.4544,3.6576 -7.162799,3.6576 -2.4892,0 -3.6576,-1.1684 -1.2192,-1.1684 -1.2192,-2.6416 0,-1.4224 0.6604,-2.3876 0.6604,-0.9652 1.4732,-0.9652 0.8128,0 1.2192,0.3556 0.4064,0.4064 0.4064,0.8128 0,0.4572 -0.508,1.3716 -0.5588,0.9652 -0.5588,1.6256 0,0.6604 0.3556,1.1176 0.3556,0.4572 1.27,0.4572 0.9144,0 2.1844,-0.9144 1.219199,-0.8636 2.387599,-2.54 4.3688,-6.4516 11.531596,-25.2476 h -1.4224 q -2.5908,0 -3.4544,1.6256 z"
           inkscape:connector-curvature="0" />
        <path
           id="path85"
           style="font-style:normal;font-variant:normal;font-weight:normal;font-stretch:normal;font-size:50.79999924px;font-family:Playball;-inkscape-font-specification:Playball;stroke-width:0.26458332;fill:#d4aa00"
           d="m 118.47671,245.56985 q -3.81,7.2644 -4.2164,7.2644 -0.254,0 -0.254,-0.8128 0,-0.8636 0.3048,-1.4732 2.4892,-4.2672 3.7592,-8.128 0.2032,-0.6604 0.4572,-0.8636 0.254,-0.254 0.8636,-0.254 h 0.4064 l 4.4704,0.3556 q 0.3048,-0.762 1.016,-2.794 0.762,-2.032 1.1684,-3.0988 0.4064,-1.0668 1.2192,-2.8956 0.8128,-1.8288 1.4732,-2.8956 0.6604,-1.0668 1.7272,-2.3876 1.0668,-1.3716 2.1336,-2.0828 2.5908,-1.7272 5.588,-1.7272 5.28319,0 5.28319,3.9116 0,1.4732 -0.8636,2.6416 -0.8128,1.1684 -2.18439,1.1684 -0.6604,0 -1.1684,-0.3556 -0.4572,-0.3556 -0.4572,-0.8128 0,-0.508 0.762,-1.5748 0.762,-1.1176 0.762,-1.8796 0,-0.8128 -0.6604,-1.3208 -0.6096,-0.508 -1.4732,-0.508 -1.524,0 -3.048,1.6256 -1.524,1.6256 -2.794,4.2672 -2.2352,4.6228 -4.0132,9.8552 -0.0508,0.254 -0.1016,0.3556 -0.1524,0.4064 -0.254,0.7112 8.0264,0 9.144,-0.7112 -0.6604,1.6256 -2.8448,2.1336 -2.1844,0.508 -7.0104,0.6096 l -1.4732,4.2672 q -3.1496,9.0424 -4.8768,12.446 -1.7272,3.3528 -3.302,5.7912 -1.524,2.4384 -3.048,4.0132 -3.4544,3.6576 -7.1628,3.6576 -2.4892,0 -3.6576,-1.1684 -1.2192,-1.1684 -1.2192,-2.6416 0,-1.4224 0.6604,-2.3876 0.6604,-0.9652 1.4732,-0.9652 0.8128,0 1.2192,0.3556 0.4064,0.4064 0.4064,0.8128 0,0.4572 -0.508,1.3716 -0.5588,0.9652 -0.5588,1.6256 0,0.6604 0.3556,1.1176 0.3556,0.4572 1.27,0.4572 0.9144,0 2.1844,-0.9144 1.2192,-0.8636 2.3876,-2.54 4.3688,-6.4516 11.5316,-25.2476 h -1.4224 q -2.5908,0 -3.4544,1.6256 z"
           inkscape:connector-curvature="0" />
        <path
           id="path87"
           style="font-style:normal;font-variant:normal;font-weight:normal;font-stretch:normal;font-size:50.79999924px;font-family:Playball;-inkscape-font-specification:Playball;stroke-width:0.26458332;fill:#d4aa00"
           d="m 155.24797,248.97345 q 0.1524,-0.3048 0.3048,-0.3048 0.3048,0 0.3048,0.762 0,2.4384 -1.9812,4.064 -1.9304,1.5748 -3.6576,1.5748 -1.6764,0 -2.8956,-0.9652 -1.8288,3.6068 -4.3688,5.6896 -2.4892,2.0828 -6.4516,2.0828 -2.54,0 -4.1656,-1.524 -1.5748,-1.5748 -1.5748,-4.7244 0,-3.2004 1.4224,-6.5532 1.4732,-3.4036 4.3688,-5.842 2.9464,-2.4384 6.5532,-2.4384 6.0452,0 6.0452,6.4008 0,2.4384 -1.0668,5.1308 0.762,1.0668 2.1844,1.0668 2.6416,0 4.9784,-4.4196 z m -8.4836,-3.1496 q -0.2032,-2.6924 -2.4384,-2.6924 -3.5052,0 -6.858,6.8072 -1.8288,3.7592 -1.8288,6.8072 0,3.048 2.6416,3.2004 2.1844,0 4.0132,-2.286 1.8796,-2.3368 3.1496,-5.1308 -1.7272,-1.4732 -1.7272,-3.7084 0,-1.3716 0.7112,-2.1844 0.762,-0.8128 2.032,-0.8128 z"
           inkscape:connector-curvature="0" />
        <path
           id="path89"
           style="font-style:normal;font-variant:normal;font-weight:normal;font-stretch:normal;font-size:50.79999924px;font-family:Playball;-inkscape-font-specification:Playball;stroke-width:0.26458332;fill:#d4aa00"
           d="m 176.29029,251.36105 q -1.778,2.9972 -3.6068,5.4356 -3.9116,5.08 -7.7216,5.08 -2.0828,0 -3.1496,-2.0828 -1.016,-2.0828 -1.016,-4.6228 0,-5.08 1.524,-5.08 2.3876,0 4.4196,-1.0668 2.032,-1.1176 2.032,-2.8956 0,-1.4224 -1.6256,-1.4224 -3.5052,0 -7.7724,7.62 -0.4064,0.762 -1.7272,3.556 -1.27,2.7432 -2.286,4.1656 -0.9652,1.4224 -1.9304,1.4224 h -3.0988 q 1.5748,-2.9464 4.6228,-11.8872 3.0988,-8.9916 4.572,-12.0396 0.0508,-0.1016 0.6096,-1.3208 0.6096,-1.2192 0.8128,-1.6764 0.254,-0.4572 0.9144,-1.7272 0.6604,-1.27 1.0668,-1.8796 0.4064,-0.6096 1.1176,-1.7272 0.7112,-1.1684 1.27,-1.778 0.5588,-0.6096 1.3208,-1.4224 0.762,-0.8636 1.4224,-1.27 1.7272,-1.016 3.1496,-1.016 2.794,0 2.794,2.54 0,3.556 -4.318,9.4488 -4.2672,5.842 -9.652,11.0744 l -0.9144,2.54 q 2.4384,-3.1496 5.5372,-5.4864 3.0988,-2.3876 5.6896,-2.3876 1.4732,0 2.286,0.7112 0.8636,0.7112 0.8636,1.9304 0,2.794 -2.4892,4.5212 -2.4384,1.6764 -5.6388,2.1844 0.4572,5.2832 1.4732,6.4516 0.508,0.5588 1.27,0.5588 0.762,0 2.0828,-0.9144 1.3208,-0.9144 2.1336,-1.9812 0.8636,-1.1176 1.778,-2.6416 0.9652,-1.524 1.6256,-2.6416 0.7112,-1.1176 0.8128,-1.1176 0.3048,0 0.3048,1.016 0,0.9652 -0.5588,1.8288 z m -4.9784,-26.3144 q -2.8448,0 -9.9568,18.288 6.5024,-7.62 9.144,-12.8524 1.524,-2.7432 1.524,-4.5212 0,-0.9144 -0.7112,-0.9144 z"
           inkscape:connector-curvature="0" />
        <path
           id="path91"
           style="font-style:normal;font-variant:normal;font-weight:normal;font-stretch:normal;font-size:50.79999924px;font-family:Playball;-inkscape-font-specification:Playball;stroke-width:0.26458332;fill:#d4aa00"
           d="m 193.77342,240.99785 2.4384,0.0508 q 0.762,0 0.9652,-0.0508 -1.4224,0.9652 -4.1148,6.7564 -2.6416,5.7404 -2.6416,8.2804 0,1.524 1.016,1.524 0.6604,0 1.778,-0.8636 1.1684,-0.8636 1.9812,-1.8796 0.8128,-1.0668 1.7272,-2.5908 0.9652,-1.524 1.6256,-2.6416 0.7112,-1.1176 0.8128,-1.1176 0.3048,0 0.3048,0.9652 0,0.9652 -0.5588,1.8288 -6.2992,10.5156 -10.5156,10.5156 -2.8448,0 -2.8448,-4.2164 0,-1.3208 0.2032,-2.54 -4.7752,6.7564 -9.0932,6.7564 -1.27,0 -2.0828,-1.0668 -0.762,-1.0668 -0.762,-3.1496 0,-2.0828 1.4732,-6.858 1.4732,-4.826 3.6068,-7.9248 0.508,-0.762 1.0668,-0.9144 0.6096,-0.2032 2.2352,-0.2032 h 2.4384 q -1.27,1.7272 -2.7432,4.6736 -3.3528,6.9596 -3.3528,10.2108 0,1.9304 1.3716,1.9304 1.4224,0 3.3528,-2.6924 1.9304,-2.6924 4.1148,-6.9596 2.2352,-4.318 2.5908,-4.8768 1.8796,-2.9464 3.6068,-2.9464 z"
           inkscape:connector-curvature="0" />
        <path
           id="path93"
           style="font-style:normal;font-variant:normal;font-weight:normal;font-stretch:normal;font-size:50.79999924px;font-family:Playball;-inkscape-font-specification:Playball;stroke-width:0.26458332;fill:#d4aa00"
           d="m 232.90054,251.25945 q -1.8796,3.1496 -3.4544,5.2832 -1.524,2.0828 -3.5052,3.6576 -1.9812,1.5748 -3.6068,1.5748 -2.9972,0 -2.9972,-3.4544 0,-4.0132 3.2004,-11.43 0.7112,-1.8796 0.7112,-2.5908 0,-1.016 -0.9144,-1.016 -0.5588,0 -1.9304,0.6604 -1.3716,0.6604 -2.6416,1.9812 -1.2192,1.3208 -1.9812,2.4384 -0.762,1.1176 -1.6764,3.3528 -0.9144,2.2352 -1.2192,3.1496 -1.4732,4.572 -1.9812,6.604 h -4.9784 q 2.6416,-7.3152 3.6068,-9.8552 1.016,-2.54 1.2192,-3.1496 l 0.4572,-1.4224 q 0.5588,-1.6256 0.5588,-2.6924 0,-1.0668 -0.9652,-1.0668 -0.8128,0 -2.2352,0.7112 -1.3716,0.7112 -2.6924,2.0828 -1.3208,1.3716 -2.2352,3.2004 -0.8636,1.778 -1.4224,3.0988 -0.508,1.3208 -1.0668,3.2512 -0.5588,1.8796 -1.016,3.0988 -0.4064,1.1684 -0.8636,2.7432 h -4.9276 q 0.5588,-2.1336 1.2192,-3.81 l 3.302,-8.4328 q 2.032,-5.08 2.032,-7.4168 0,-0.508 -0.1016,-0.6604 h 2.1336 q 1.7272,0 2.2352,0.3556 0.508,0.3048 0.508,0.8636 0,0.5588 -0.6096,2.5908 4.4704,-4.064 8.9408,-4.064 2.6924,0 2.6924,2.2352 0,0.9652 -0.5588,2.3876 4.6228,-4.6228 9.4996,-4.6228 2.6416,0 2.6416,2.2352 0,1.016 -0.3556,1.9304 -0.3556,0.9144 -0.9144,2.3876 -0.5588,1.4224 -0.9144,2.3876 -0.3556,0.9144 -0.8128,2.286 -0.9652,2.794 -0.9652,4.1656 0,1.3208 0.8128,1.3208 0.8636,0 2.1336,-1.1176 1.27,-1.1176 1.8796,-1.9304 0.6604,-0.8128 1.5748,-2.286 0.9652,-1.524 1.6256,-2.6416 0.6604,-1.1176 0.762,-1.1176 0.3048,0 0.3048,0.9652 0,0.9144 -0.508,1.778 z"
           inkscape:connector-curvature="0" />
        <path
           id="path95"
           style="font-style:normal;font-variant:normal;font-weight:normal;font-stretch:normal;font-size:50.79999924px;font-family:Playball;-inkscape-font-specification:Playball;stroke-width:0.26458332;fill:#d4aa00"
           d="m 250.32811,240.99785 2.4384,0.0508 q 0.762,0 0.9652,-0.0508 -1.4224,0.9652 -4.1148,6.7564 -2.6416,5.7404 -2.6416,8.2804 0,1.524 1.016,1.524 0.6604,0 1.778,-0.8636 1.1684,-0.8636 1.9812,-1.8796 0.8128,-1.0668 1.7272,-2.5908 0.9652,-1.524 1.6256,-2.6416 0.7112,-1.1176 0.8128,-1.1176 0.3048,0 0.3048,0.9652 0,0.9652 -0.5588,1.8288 -6.2992,10.5156 -10.5156,10.5156 -2.8448,0 -2.8448,-4.2164 0,-1.3208 0.2032,-2.54 -4.7752,6.7564 -9.0932,6.7564 -1.27,0 -2.0828,-1.0668 -0.762,-1.0668 -0.762,-3.1496 0,-2.0828 1.4732,-6.858 1.4732,-4.826 3.6068,-7.9248 0.508,-0.762 1.0668,-0.9144 0.6096,-0.2032 2.2352,-0.2032 h 2.4384 q -1.27,1.7272 -2.7432,4.6736 -3.3528,6.9596 -3.3528,10.2108 0,1.9304 1.3716,1.9304 1.4224,0 3.3528,-2.6924 1.9304,-2.6924 4.1148,-6.9596 2.2352,-4.318 2.5908,-4.8768 1.8796,-2.9464 3.6068,-2.9464 z"
           inkscape:connector-curvature="0" />
        <path
           id="path97"
           style="font-style:normal;font-variant:normal;font-weight:normal;font-stretch:normal;font-size:50.79999924px;font-family:Playball;-inkscape-font-specification:Playball;stroke-width:0.26458332"
           d="m 279.3349,226.01185 h 11.4808 q -3.5052,2.6924 -9.652,16.6624 -1.5748,3.556 -3.6068,9.3472 -1.9812,5.7404 -1.9812,8.382 0,0.7112 0.2032,1.0668 h -6.5532 q 1.4224,-6.1468 5.9944,-17.0688 6.096,-14.5288 7.874,-16.51 -4.318,0.1016 -8.7884,1.778 -4.4196,1.6256 -5.1308,3.9116 -0.0508,0.1524 -0.2032,0.1524 -0.4572,0 -0.4572,-0.6604 0,-0.1016 0.1016,-0.508 0.9652,-2.794 2.794,-4.318 1.8288,-1.524 3.556,-1.8796 1.778,-0.3556 4.3688,-0.3556 z"
           inkscape:connector-curvature="0" />
        <path
           id="path99"
           style="font-style:normal;font-variant:normal;font-weight:normal;font-stretch:normal;font-size:50.79999924px;font-family:Playball;-inkscape-font-specification:Playball;stroke-width:0.26458332"
           d="m 307.28998,251.25945 q -1.8796,3.1496 -3.4544,5.2832 -1.524,2.0828 -3.5052,3.6576 -1.9812,1.5748 -3.6068,1.5748 -2.9972,0 -2.9972,-3.302 0,-3.302 3.81,-13.2588 0.2032,-0.4572 0.2032,-0.9652 0,-1.0668 -1.3716,-1.0668 -1.3208,0 -2.6416,0.8636 -1.27,0.8128 -2.3368,2.3876 -1.0668,1.524 -1.9304,3.1496 -0.8636,1.5748 -1.6256,3.6576 -0.7112,2.0828 -1.1684,3.5052 -0.4064,1.3716 -0.8636,2.9972 -0.4064,1.5748 -0.4572,1.7272 h -4.9276 q 0,-1.0668 4.4704,-12.2428 1.8288,-5.2324 1.8288,-7.3152 0,-0.508 -0.1524,-0.762 h 2.1336 q 1.778,0 2.286,0.3556 0.508,0.3556 0.508,0.9652 0,0.6096 -0.5588,2.4892 4.2672,-4.064 8.5852,-4.064 2.8956,0 2.8956,2.6416 0,0.8636 -0.254,1.7272 -0.254,0.8636 -1.27,3.4544 -2.2352,5.6896 -2.2352,7.62 0,1.2192 0.9144,1.2192 0.6604,0 1.8288,-0.9144 1.2192,-0.9144 1.9812,-1.8796 0.8128,-1.016 1.7272,-2.4892 0.9652,-1.524 1.6256,-2.6416 0.6604,-1.1176 0.762,-1.1176 0.3048,0 0.3048,0.9652 0,0.9144 -0.508,1.778 z"
           inkscape:connector-curvature="0" />
        <path
           id="path101"
           style="font-style:normal;font-variant:normal;font-weight:normal;font-stretch:normal;font-size:50.79999924px;font-family:Playball;-inkscape-font-specification:Playball;stroke-width:0.26458332"
           d="m 326.52017,251.15785 q -3.81,6.35 -6.9088,8.8392 -3.0988,2.4892 -8.0264,2.4892 -2.8448,0 -4.7752,-1.0668 -1.9304,-1.1176 -1.9304,-3.2512 0,-1.2192 0.7112,-2.2352 0.7112,-1.016 1.9304,-1.016 1.27,0 1.6256,0.9144 -0.9652,0.9652 -0.9652,2.2352 0,2.54 2.8448,2.54 1.6764,0 2.8956,-1.1684 1.27,-1.1684 1.27,-2.54 0,-1.4224 -0.6096,-2.4892 -0.6096,-1.0668 -1.4732,-1.8796 -0.8636,-0.8128 -1.7272,-1.6256 -2.0828,-1.9812 -2.0828,-4.5212 0,-2.5908 1.9304,-4.318 1.9812,-1.778 5.3848,-1.778 2.1336,0 3.6068,0.762 1.4732,0.762 1.4732,2.3876 0,1.5748 -0.9652,2.7432 -0.9652,1.1684 -2.6416,1.1684 -1.6256,0 -1.6256,-1.524 0,-0.3556 1.1684,-1.0668 1.1684,-0.7112 1.1684,-1.4732 0,-0.762 -0.6604,-1.1176 -0.6096,-0.4064 -1.778,-0.4064 -1.1684,0 -2.286,0.8128 -1.0668,0.8128 -1.0668,2.1336 0,1.3208 1.1176,2.4892 1.1176,1.1684 2.4384,1.9812 1.3208,0.8128 2.4384,2.286 1.1176,1.4224 1.1176,3.048 0,1.5748 -0.762,2.8448 -0.7112,1.27 -1.7272,2.032 2.8448,-1.2192 6.0452,-6.096 0.3048,-0.4064 1.0668,-1.6764 1.778,-3.2004 1.9812,-3.2004 0.3048,0 0.3048,0.9652 0,0.9144 -0.508,1.778 z"
           inkscape:connector-curvature="0" />
        <path
           id="path103"
           style="font-style:normal;font-variant:normal;font-weight:normal;font-stretch:normal;font-size:50.79999924px;font-family:Playball;-inkscape-font-specification:Playball;stroke-width:0.26458332"
           d="m 339.21542,234.44465 h -0.2032 q -1.016,0 -1.9812,0.8636 -0.9144,0.8636 -1.3208,1.778 -1.3208,-0.508 -1.3208,-1.8288 0,-1.3208 1.2192,-2.6416 1.2192,-1.3716 2.3368,-1.3716 1.1176,0 1.6764,0.508 0.5588,0.508 0.5588,1.3208 0,0.762 -0.9652,1.3716 z m -6.9088,6.7056 2.54,0.0508 h 0.508 q -0.8128,0.6096 -2.1844,3.302 -1.3208,2.6924 -1.9812,4.064 -0.6604,1.3716 -1.524,3.7084 -0.8128,2.3368 -0.8128,3.81 0,1.4732 0.9652,1.4732 0.6604,0 1.8288,-0.8636 1.2192,-0.9144 1.9812,-1.8796 0.762,-1.016 1.6764,-2.54 0.9652,-1.524 1.6256,-2.6416 0.7112,-1.1176 0.8128,-1.1176 0.3048,0 0.3048,0.9652 0,0.9144 -0.508,1.778 -1.8796,3.1496 -3.4544,5.2832 -1.524,2.0828 -3.5052,3.6576 -1.9812,1.5748 -3.6068,1.5748 -2.8448,0 -2.8448,-3.9624 0,-6.1468 4.2164,-13.6144 1.778,-3.048 3.9624,-3.048 z"
           inkscape:connector-curvature="0" />
        <path
           id="path105"
           style="font-style:normal;font-variant:normal;font-weight:normal;font-stretch:normal;font-size:50.79999924px;font-family:Playball;-inkscape-font-specification:Playball;stroke-width:0.26458332"
           d="m 357.84869,241.15025 h 2.032 q -1.0668,0.7112 -2.3368,3.0988 -1.27,2.3876 -2.1844,4.7244 -0.8636,2.286 -2.286,6.2992 -3.1496,9.0424 -5.4864,11.9888 -2.3368,2.9972 -5.2832,4.572 -2.8956,1.6256 -5.2832,1.6256 -5.08,0 -5.08,-3.2004 0,-1.27 0.8128,-2.3876 0.762,-1.1176 2.0828,-1.1176 1.3208,0 1.778,1.0668 -0.508,0.3048 -0.8128,1.0668 -0.254,0.762 -0.254,1.4224 0,0.7112 0.508,1.1684 0.5588,0.4572 1.4224,0.4572 2.4384,0 4.4196,-2.4892 1.9812,-2.4384 3.3528,-5.6896 0.3556,-0.8636 4.8768,-13.4112 -5.9944,11.2776 -11.2776,11.2776 -3.4544,0 -3.4544,-4.6736 0,-3.556 1.524,-7.2136 1.5748,-3.6576 4.4704,-6.1976 2.8956,-2.5908 6.35,-2.5908 1.5748,0 2.9972,0.7112 1.4732,0.7112 1.8796,2.3368 0.762,-1.6256 1.778,-2.2352 1.0668,-0.6096 3.4544,-0.6096 z m -5.4356,3.302 q -0.508,-1.6256 -2.3876,-1.6256 -3.3528,0 -6.5532,4.7244 -3.1496,4.6736 -3.1496,8.3312 0,1.524 1.2192,1.524 1.3208,0 3.0988,-1.6256 1.778,-1.6764 3.2004,-3.9116 4.572,-7.0612 4.572,-7.4168 z"
           inkscape:connector-curvature="0" />
        <path
           id="path107"
           style="font-style:normal;font-variant:normal;font-weight:normal;font-stretch:normal;font-size:50.79999924px;font-family:Playball;-inkscape-font-specification:Playball;stroke-width:0.26458332"
           d="m 381.90486,251.25945 q -6.2484,10.5156 -10.5664,10.5156 -2.9972,0 -2.9972,-3.4544 0,-4.0132 3.2004,-11.43 0.7112,-1.8796 0.7112,-2.5908 0,-1.016 -0.9144,-1.016 -0.6096,0 -2.0828,0.7112 -1.4224,0.7112 -2.7432,2.0828 -1.3208,1.3716 -2.2352,3.2004 -0.8636,1.778 -1.4224,3.0988 -0.508,1.3208 -1.0668,3.2512 -0.5588,1.8796 -1.016,3.0988 -0.4064,1.1684 -0.8636,2.7432 h -4.9276 q 1.3716,-3.5052 3.9116,-11.176 2.5908,-7.7216 4.4196,-12.0904 1.8288,-4.4196 3.556,-7.4168 1.778,-3.048 4.0132,-5.08 2.286,-2.032 4.7752,-2.032 2.54,0 2.54,2.3876 0,1.6764 -1.3716,4.4196 -2.9464,5.7912 -9.8552,13.4112 2.7432,-1.9812 4.318,-2.5908 1.6256,-0.6096 3.0988,-0.6096 2.8956,0 2.8956,2.54 0,1.016 -0.3556,1.8796 -0.3556,0.8636 -0.8128,1.9812 -0.4064,1.1176 -0.7112,1.8288 -0.254,0.7112 -0.7112,1.9304 -0.4572,1.2192 -0.7112,2.0828 -0.6604,2.1336 -0.6604,3.4036 0,1.27 0.8636,1.27 3.048,0 7.62,-8.8392 0.1524,-0.3556 0.3556,-0.3556 0.254,0 0.254,0.9652 0,0.9144 -0.508,1.8796 z m -6.1468,-26.3144 q -1.778,0 -4.6736,5.6388 -2.8448,5.6388 -5.588,12.954 6.9596,-8.1788 9.4996,-13.4112 1.4224,-3.2004 1.4224,-4.1656 0,-1.016 -0.6604,-1.016 z"
           inkscape:connector-curvature="0" />
        <path
           id="path109"
           style="font-style:normal;font-variant:normal;font-weight:normal;font-stretch:normal;font-size:50.79999924px;font-family:Playball;-inkscape-font-specification:Playball;stroke-width:0.26458332"
           d="m 395.79866,232.36185 q -2.4892,1.7272 -5.588,8.8392 h 5.1308 l 0.0508,0.0508 q 0,0.254 -0.5588,0.9144 -0.5588,0.6096 -0.9652,0.6096 h -4.3688 q -4.0132,9.9568 -4.0132,12.8016 0,1.9304 1.2192,1.9304 1.778,0 4.1656,-3.048 0.5588,-0.6604 1.4732,-2.2352 2.3368,-3.7592 2.4384,-3.7592 0.3048,0 0.3048,0.8128 -0.0508,1.9304 -4.2164,7.5184 -1.3716,1.8288 -3.302,3.4036 -1.9304,1.5748 -3.5052,1.5748 -2.8956,0 -2.8956,-4.064 0,-3.4036 1.6256,-7.8232 v -0.0508 q -0.9652,1.778 -1.6764,2.6416 -0.6604,0.8636 -0.762,0.8636 -0.2032,0 -0.2032,-0.6096 0,-0.6604 0.6604,-2.0828 0.7112,-1.4224 1.8796,-3.7084 1.2192,-2.286 1.9812,-4.1656 h -3.4036 q -0.1524,0 -0.1524,-0.2032 0,-0.254 0.3556,-0.8128 0.4064,-0.5588 0.6096,-0.5588 h 3.8608 q 3.6576,-8.7884 7.4168,-8.7884 2.1844,0 2.4384,-0.0508 z"
           inkscape:connector-curvature="0" />
        <path
           id="path111"
           style="font-style:normal;font-variant:normal;font-weight:normal;font-stretch:normal;font-size:50.79999924px;font-family:Playball;-inkscape-font-specification:Playball;stroke-width:0.26458332"
           d="m 413.73346,251.15785 q -3.81,6.35 -6.9088,8.8392 -3.0988,2.4892 -8.0264,2.4892 -2.8448,0 -4.7752,-1.0668 -1.9304,-1.1176 -1.9304,-3.2512 0,-1.2192 0.7112,-2.2352 0.7112,-1.016 1.9304,-1.016 1.27,0 1.6256,0.9144 -0.9652,0.9652 -0.9652,2.2352 0,2.54 2.8448,2.54 1.6764,0 2.8956,-1.1684 1.27,-1.1684 1.27,-2.54 0,-1.4224 -0.6096,-2.4892 -0.6096,-1.0668 -1.4732,-1.8796 -0.8636,-0.8128 -1.7272,-1.6256 -2.0828,-1.9812 -2.0828,-4.5212 0,-2.5908 1.9304,-4.318 1.9812,-1.778 5.3848,-1.778 2.1336,0 3.6068,0.762 1.4732,0.762 1.4732,2.3876 0,1.5748 -0.9652,2.7432 -0.9652,1.1684 -2.6416,1.1684 -1.6256,0 -1.6256,-1.524 0,-0.3556 1.1684,-1.0668 1.1684,-0.7112 1.1684,-1.4732 0,-0.762 -0.6604,-1.1176 -0.6096,-0.4064 -1.778,-0.4064 -1.1684,0 -2.286,0.8128 -1.0668,0.8128 -1.0668,2.1336 0,1.3208 1.1176,2.4892 1.1176,1.1684 2.4384,1.9812 1.3208,0.8128 2.4384,2.286 1.1176,1.4224 1.1176,3.048 0,1.5748 -0.762,2.8448 -0.7112,1.27 -1.7272,2.032 2.8448,-1.2192 6.0452,-6.096 0.3048,-0.4064 1.0668,-1.6764 1.778,-3.2004 1.9812,-3.2004 0.3048,0 0.3048,0.9652 0,0.9144 -0.508,1.778 z"
           inkscape:connector-curvature="0" />
      </g>
    </g>
  </g>
</svg>
