<svg xmlns="http://www.w3.org/2000/svg" width="44.825" height="45.127" viewBox="0 0 44.825 45.127"><defs><style>.a{fill:#d4aa00;}</style></defs><g transform="translate(0)"><g transform="translate(0)"><g transform="translate(0 0)"><path class="a" d="M76.142,73.261a6.1,6.1,0,0,1-1.452,3.206A5.021,5.021,0,0,1,71.907,77.8q-6.17,16.7-24.136,16.7-7.924,0-12.219-3.69-4.234-3.751-4.234-10.465a26.41,26.41,0,0,1,2.359-10.526,39.119,39.119,0,0,1,6.231-10.042,31.547,31.547,0,0,1,9.618-7.441,23.982,23.982,0,0,1,11.131-2.964q5.444,0,8.408,1.936a5.709,5.709,0,0,1,2.964,5.021,7.357,7.357,0,0,1-2.964,5.626,10.026,10.026,0,0,1-6.594,2.48,3.962,3.962,0,0,1-2.178-.544,1.8,1.8,0,0,1-.847-1.512,3.408,3.408,0,0,1,.726-1.936,4.407,4.407,0,0,0,1.512.242,6.733,6.733,0,0,0,4.355-1.633,4.927,4.927,0,0,0,2-3.932q0-3.509-4.6-3.509a17.232,17.232,0,0,0-9.074,2.783A29.124,29.124,0,0,0,46.44,61.4a37.922,37.922,0,0,0-5.565,9.679A29.26,29.26,0,0,0,38.758,81.73q0,5.2,2.662,7.683a9.966,9.966,0,0,0,7.078,2.48,20.758,20.758,0,0,0,11.977-3.872A14.8,14.8,0,0,0,67.068,77.98q-10.828,0-13.006.3.3-.544.726-1.391a17.35,17.35,0,0,1,1.633-2.238q1.21-1.391,2-1.391Z" transform="translate(-31.317 -49.367)"/></g></g></g></svg>